<svg width="139" height="40" viewBox="0 0 139 40" fill="none" xmlns="http://www.w3.org/2000/svg">
<path d="M7.77 22.68C7.77 23.408 7.826 23.94 7.938 24.276C8.05 24.584 8.26 24.794 8.568 24.906C8.904 25.018 9.436 25.074 10.164 25.074H11.592C13.776 25.074 15.666 24.5 17.262 23.352C18.858 22.176 19.922 20.594 20.454 18.606C20.454 18.55 20.51 18.522 20.622 18.522C20.678 18.522 20.734 18.55 20.79 18.606C20.874 18.634 20.916 18.662 20.916 18.69C20.664 21.462 20.538 23.772 20.538 25.62C20.538 25.844 20.482 26.012 20.37 26.124C20.286 26.208 20.132 26.25 19.908 26.25H0.084C0.028 26.25 0 26.166 0 25.998C0 25.83 0.028 25.746 0.084 25.746C0.98 25.746 1.624 25.676 2.016 25.536C2.436 25.396 2.716 25.13 2.856 24.738C3.024 24.318 3.108 23.688 3.108 22.848V3.402C3.108 2.562 3.024 1.946 2.856 1.554C2.716 1.162 2.436 0.895998 2.016 0.755998C1.596 0.587998 0.952 0.503999 0.084 0.503999C0.028 0.503999 0 0.419999 0 0.251999C0 0.0839998 0.028 0 0.084 0L2.226 0.0419995C3.514 0.0979987 4.578 0.125998 5.418 0.125998C6.258 0.125998 7.322 0.0979987 8.61 0.0419995L10.752 0C10.836 0 10.878 0.0839998 10.878 0.251999C10.878 0.419999 10.836 0.503999 10.752 0.503999C9.884 0.503999 9.24 0.587998 8.82 0.755998C8.4 0.895998 8.12 1.176 7.98 1.596C7.84 1.988 7.77 2.604 7.77 3.444V22.68Z" fill="white"/>
<path d="M39.3087 23.982C39.4207 23.982 39.4907 24.052 39.5187 24.192C39.5747 24.304 39.5467 24.388 39.4347 24.444L35.1087 26.502C34.9967 26.558 34.8567 26.586 34.6887 26.586C34.2407 26.586 33.8067 26.348 33.3867 25.872C32.9947 25.396 32.7147 24.752 32.5467 23.94L30.7407 25.2C30.0967 25.676 29.4947 26.026 28.9347 26.25C28.3747 26.446 27.7447 26.544 27.0447 26.544C25.8407 26.544 24.9307 26.278 24.3147 25.746C23.6987 25.214 23.3907 24.472 23.3907 23.52C23.3907 22.764 23.5727 22.162 23.9367 21.714C24.3007 21.238 24.7487 20.874 25.2807 20.622C25.8407 20.342 26.6107 20.034 27.5907 19.698L28.6407 19.32L32.4207 17.934V15.54C32.4207 13.748 32.2667 12.446 31.9587 11.634C31.6787 10.822 31.1887 10.416 30.4887 10.416C29.0047 10.416 28.1647 11.564 27.9687 13.86C27.8847 14.7 27.6327 15.302 27.2127 15.666C26.8207 16.03 26.2607 16.212 25.5327 16.212C24.8327 16.212 24.3147 16.072 23.9787 15.792C23.6707 15.484 23.5167 15.092 23.5167 14.616C23.5167 13.776 24.0067 12.978 24.9867 12.222C25.9667 11.438 27.1427 10.808 28.5147 10.332C29.9147 9.856 31.1467 9.618 32.2107 9.618C33.4427 9.618 34.4367 10.01 35.1927 10.794C35.9767 11.55 36.3687 12.712 36.3687 14.28V21.714C36.3687 22.526 36.5087 23.156 36.7887 23.604C37.0967 24.052 37.5167 24.276 38.0487 24.276C38.4407 24.276 38.8467 24.178 39.2667 23.982H39.3087ZM32.4627 23.226C32.4347 23.114 32.4207 22.932 32.4207 22.68V18.648L30.6147 19.488C30.5307 19.516 30.2507 19.628 29.7747 19.824C29.2987 19.992 28.8787 20.286 28.5147 20.706C28.1787 21.126 28.0107 21.616 28.0107 22.176C28.0107 22.848 28.2207 23.38 28.6407 23.772C29.0887 24.136 29.5927 24.318 30.1527 24.318C30.6007 24.318 31.0627 24.164 31.5387 23.856L32.4627 23.226Z" fill="white"/>
<path d="M49.8885 24.528C51.5405 24.556 52.8845 24.654 53.9205 24.822C54.9845 24.99 55.8665 25.41 56.5665 26.082C57.2945 26.726 57.6585 27.72 57.6585 29.064C57.6585 30.632 57.1685 32.102 56.1885 33.474C55.2365 34.874 53.9345 35.994 52.2825 36.834C50.6585 37.674 48.9085 38.094 47.0325 38.094C45.1005 38.094 43.5185 37.646 42.2865 36.75C41.0545 35.882 40.4385 34.734 40.4385 33.306C40.4385 31.346 41.8525 29.442 44.6805 27.594C42.6645 27.202 41.6565 26.194 41.6565 24.57C41.6565 22.834 42.6365 21.308 44.5965 19.992C43.5325 19.488 42.6925 18.788 42.0765 17.892C41.4885 16.968 41.1945 16.002 41.1945 14.994C41.1945 13.874 41.5585 12.922 42.2865 12.138C43.0145 11.354 43.9385 10.766 45.0585 10.374C46.2065 9.954 47.3685 9.744 48.5445 9.744C50.3085 9.744 51.8205 10.192 53.0805 11.088C54.5365 10.108 56.0485 9.618 57.6165 9.618C57.8405 9.618 57.9525 10.01 57.9525 10.794C57.9525 11.214 57.8965 11.662 57.7845 12.138C57.6725 12.586 57.5605 12.768 57.4485 12.684C56.3005 12.208 55.2645 11.97 54.3405 11.97H54.0045C54.7605 12.866 55.1385 13.874 55.1385 14.994C55.1385 16.114 54.7745 17.108 54.0465 17.976C53.3185 18.844 52.3805 19.516 51.2325 19.992C50.1125 20.44 48.9505 20.664 47.7465 20.664C46.8785 20.664 46.0805 20.538 45.3525 20.286C44.9045 20.762 44.6805 21.364 44.6805 22.092C44.6805 22.848 44.8765 23.394 45.2685 23.73C45.6884 24.066 46.2345 24.276 46.9065 24.36C47.5785 24.444 48.5725 24.5 49.8885 24.528ZM47.1585 10.542C45.8985 10.542 45.2685 11.606 45.2685 13.734C45.2685 14.91 45.4365 15.974 45.7725 16.926C46.1085 17.85 46.5425 18.578 47.0745 19.11C47.6345 19.642 48.2225 19.908 48.8385 19.908C49.4545 19.908 49.9725 19.6 50.3925 18.984C50.8125 18.368 51.0225 17.43 51.0225 16.17C51.0225 14.966 50.8265 13.944 50.4345 13.104C50.0425 12.236 49.5385 11.592 48.9225 11.172C48.3345 10.752 47.7465 10.542 47.1585 10.542ZM49.5525 36.75C50.9805 36.75 52.1145 36.302 52.9545 35.406C53.7945 34.51 54.2145 33.292 54.2145 31.752C54.2145 30.548 53.9485 29.666 53.4165 29.106C52.9125 28.574 52.2405 28.238 51.4005 28.098C50.5885 27.986 49.3985 27.916 47.8305 27.888C47.5785 27.888 47.2285 27.874 46.7805 27.846C46.3325 27.818 45.9545 27.79 45.6465 27.762C44.6945 28.462 44.2185 29.582 44.2185 31.122C44.2185 32.914 44.7365 34.3 45.7725 35.28C46.8365 36.26 48.0965 36.75 49.5525 36.75Z" fill="white"/>
<path d="M67.7995 26.796C66.0635 26.796 64.5375 26.404 63.2215 25.62C61.9335 24.808 60.9395 23.73 60.2395 22.386C59.5395 21.014 59.1895 19.53 59.1895 17.934C59.1895 16.114 59.6515 14.574 60.5755 13.314C61.4995 12.026 62.6755 11.074 64.1035 10.458C65.5315 9.814 67.0015 9.492 68.5135 9.492C70.2495 9.492 71.7615 9.898 73.0495 10.71C74.3375 11.522 75.3175 12.6 75.9895 13.944C76.6895 15.26 77.0395 16.674 77.0395 18.186C77.0395 19.866 76.6195 21.364 75.7795 22.68C74.9395 23.968 73.8055 24.976 72.3775 25.704C70.9775 26.432 69.4515 26.796 67.7995 26.796ZM69.0595 25.914C70.1515 25.914 70.9775 25.382 71.5375 24.318C72.1255 23.226 72.4195 21.672 72.4195 19.656C72.4195 17.696 72.1675 16.016 71.6635 14.616C71.1595 13.216 70.5015 12.166 69.6895 11.466C68.8775 10.738 68.0095 10.374 67.0855 10.374C64.8455 10.374 63.7255 12.376 63.7255 16.38C63.7255 18.256 63.9635 19.922 64.4395 21.378C64.9155 22.806 65.5595 23.926 66.3715 24.738C67.1835 25.522 68.0795 25.914 69.0595 25.914Z" fill="white"/>
<path d="M88.3483 26.796C86.6123 26.796 85.0863 26.404 83.7703 25.62C82.4823 24.808 81.4883 23.73 80.7883 22.386C80.0883 21.014 79.7383 19.53 79.7383 17.934C79.7383 16.114 80.2003 14.574 81.1243 13.314C82.0483 12.026 83.2243 11.074 84.6523 10.458C86.0803 9.814 87.5503 9.492 89.0623 9.492C90.7983 9.492 92.3103 9.898 93.5983 10.71C94.8863 11.522 95.8663 12.6 96.5383 13.944C97.2383 15.26 97.5883 16.674 97.5883 18.186C97.5883 19.866 97.1683 21.364 96.3283 22.68C95.4883 23.968 94.3543 24.976 92.9263 25.704C91.5263 26.432 90.0003 26.796 88.3483 26.796ZM89.6083 25.914C90.7003 25.914 91.5263 25.382 92.0863 24.318C92.6743 23.226 92.9683 21.672 92.9683 19.656C92.9683 17.696 92.7163 16.016 92.2123 14.616C91.7083 13.216 91.0503 12.166 90.2383 11.466C89.4263 10.738 88.5583 10.374 87.6343 10.374C85.3943 10.374 84.2743 12.376 84.2743 16.38C84.2743 18.256 84.5123 19.922 84.9883 21.378C85.4643 22.806 86.1083 23.926 86.9203 24.738C87.7323 25.522 88.6283 25.914 89.6083 25.914Z" fill="white"/>
<path d="M120.321 25.746C120.405 25.746 120.447 25.83 120.447 25.998C120.447 26.166 120.405 26.25 120.321 26.25C119.593 26.25 119.019 26.236 118.599 26.208L116.079 26.166L113.643 26.208C113.195 26.236 112.607 26.25 111.879 26.25C111.795 26.25 111.753 26.166 111.753 25.998C111.753 25.83 111.795 25.746 111.879 25.746C112.747 25.746 113.335 25.55 113.643 25.158C113.951 24.738 114.105 23.968 114.105 22.848V16.8C114.105 15.288 113.825 14.168 113.265 13.44C112.733 12.712 111.879 12.348 110.703 12.348C110.031 12.348 109.331 12.488 108.603 12.768C107.903 13.048 107.287 13.426 106.755 13.902V22.848C106.755 23.968 106.909 24.738 107.217 25.158C107.553 25.55 108.155 25.746 109.023 25.746C109.107 25.746 109.149 25.83 109.149 25.998C109.149 26.166 109.107 26.25 109.023 26.25C108.295 26.25 107.721 26.236 107.301 26.208L104.781 26.166L102.303 26.208C101.883 26.236 101.309 26.25 100.581 26.25C100.497 26.25 100.455 26.166 100.455 25.998C100.455 25.83 100.497 25.746 100.581 25.746C101.449 25.746 102.037 25.55 102.345 25.158C102.653 24.738 102.807 23.968 102.807 22.848V14.952C102.807 14.084 102.695 13.454 102.471 13.062C102.275 12.642 101.953 12.432 101.505 12.432C101.029 12.432 100.357 12.628 99.4891 13.02H99.4051C99.3211 13.02 99.2511 12.95 99.1951 12.81C99.1671 12.67 99.1811 12.586 99.2371 12.558L105.075 9.702C105.243 9.646 105.341 9.618 105.369 9.618C105.677 9.618 105.971 9.926 106.251 10.542C106.531 11.13 106.699 11.942 106.755 12.978C108.687 10.682 110.815 9.534 113.139 9.534C114.651 9.534 115.841 10.024 116.709 11.004C117.605 11.956 118.053 13.216 118.053 14.784V22.848C118.053 23.968 118.207 24.738 118.515 25.158C118.851 25.55 119.453 25.746 120.321 25.746Z" fill="white"/>
<path d="M138.649 23.982C138.761 23.982 138.831 24.052 138.859 24.192C138.915 24.304 138.887 24.388 138.775 24.444L134.449 26.502C134.337 26.558 134.197 26.586 134.029 26.586C133.581 26.586 133.147 26.348 132.727 25.872C132.335 25.396 132.055 24.752 131.887 23.94L130.081 25.2C129.437 25.676 128.835 26.026 128.275 26.25C127.715 26.446 127.085 26.544 126.385 26.544C125.181 26.544 124.271 26.278 123.655 25.746C123.039 25.214 122.731 24.472 122.731 23.52C122.731 22.764 122.913 22.162 123.277 21.714C123.641 21.238 124.089 20.874 124.621 20.622C125.181 20.342 125.951 20.034 126.931 19.698L127.981 19.32L131.761 17.934V15.54C131.761 13.748 131.607 12.446 131.299 11.634C131.019 10.822 130.529 10.416 129.829 10.416C128.345 10.416 127.505 11.564 127.309 13.86C127.225 14.7 126.973 15.302 126.553 15.666C126.161 16.03 125.601 16.212 124.873 16.212C124.173 16.212 123.655 16.072 123.319 15.792C123.011 15.484 122.857 15.092 122.857 14.616C122.857 13.776 123.347 12.978 124.327 12.222C125.307 11.438 126.483 10.808 127.855 10.332C129.255 9.856 130.487 9.618 131.551 9.618C132.783 9.618 133.777 10.01 134.533 10.794C135.317 11.55 135.709 12.712 135.709 14.28V21.714C135.709 22.526 135.849 23.156 136.129 23.604C136.437 24.052 136.857 24.276 137.389 24.276C137.781 24.276 138.187 24.178 138.607 23.982H138.649ZM131.803 23.226C131.775 23.114 131.761 22.932 131.761 22.68V18.648L129.955 19.488C129.871 19.516 129.591 19.628 129.115 19.824C128.639 19.992 128.219 20.286 127.855 20.706C127.519 21.126 127.351 21.616 127.351 22.176C127.351 22.848 127.561 23.38 127.981 23.772C128.429 24.136 128.933 24.318 129.493 24.318C129.941 24.318 130.403 24.164 130.879 23.856L131.803 23.226Z" fill="white"/>
<path d="M70.334 39.43C69.674 39.43 69.114 39.29 68.654 39.01C68.204 38.72 67.864 38.35 67.634 37.9C67.414 37.44 67.304 36.96 67.304 36.46C67.304 35.83 67.479 35.28 67.829 34.81C68.179 34.33 68.624 33.965 69.164 33.715C69.714 33.455 70.274 33.325 70.844 33.325C71.324 33.325 71.754 33.425 72.134 33.625C72.524 33.825 72.719 34.1 72.719 34.45C72.719 34.64 72.644 34.805 72.494 34.945C72.354 35.075 72.154 35.14 71.894 35.14C71.654 35.14 71.464 35.08 71.324 34.96C71.184 34.83 71.069 34.635 70.979 34.375C70.889 34.095 70.799 33.905 70.709 33.805C70.629 33.695 70.479 33.64 70.259 33.64C69.829 33.64 69.484 33.855 69.224 34.285C68.974 34.705 68.849 35.265 68.849 35.965C68.849 36.795 69.034 37.46 69.404 37.96C69.774 38.45 70.364 38.695 71.174 38.695C71.444 38.695 71.674 38.665 71.864 38.605C72.064 38.545 72.314 38.445 72.614 38.305H72.629C72.659 38.305 72.684 38.32 72.704 38.35C72.734 38.38 72.739 38.405 72.719 38.425C72.349 38.765 71.979 39.02 71.609 39.19C71.239 39.35 70.814 39.43 70.334 39.43Z" fill="white"/>
<path d="M78.9282 38.26C78.9482 38.26 78.9682 38.28 78.9882 38.32C79.0182 38.36 79.0232 38.39 79.0032 38.41C78.6332 38.77 78.2582 39.03 77.8782 39.19C77.4982 39.35 77.0832 39.43 76.6332 39.43C76.0032 39.43 75.4582 39.3 74.9982 39.04C74.5382 38.77 74.1882 38.415 73.9482 37.975C73.7082 37.525 73.5882 37.04 73.5882 36.52C73.5882 35.94 73.7332 35.405 74.0232 34.915C74.3132 34.425 74.7132 34.04 75.2232 33.76C75.7432 33.47 76.3282 33.325 76.9782 33.325C77.5982 33.325 78.0782 33.465 78.4182 33.745C78.7582 34.025 78.9282 34.46 78.9282 35.05C78.9282 35.36 78.8732 35.515 78.7632 35.515L75.1182 35.53C75.1082 35.6 75.1032 35.715 75.1032 35.875C75.1032 36.755 75.3032 37.445 75.7032 37.945C76.1132 38.445 76.6982 38.695 77.4582 38.695C77.7282 38.695 77.9582 38.665 78.1482 38.605C78.3382 38.545 78.5882 38.435 78.8982 38.275L78.9282 38.26ZM76.4082 33.625C76.0782 33.625 75.8032 33.77 75.5832 34.06C75.3632 34.34 75.2182 34.73 75.1482 35.23L77.3232 35.2C77.3132 34.69 77.2382 34.3 77.0982 34.03C76.9582 33.76 76.7282 33.625 76.4082 33.625Z" fill="white"/>
<path d="M81.0277 39.25C80.9977 39.25 80.9827 39.22 80.9827 39.16C80.9827 39.1 80.9977 39.07 81.0277 39.07C81.2677 39.07 81.4427 39.045 81.5527 38.995C81.6727 38.945 81.7527 38.85 81.7927 38.71C81.8327 38.56 81.8527 38.335 81.8527 38.035V34.705C81.8527 34.355 81.8227 34.115 81.7627 33.985C81.7127 33.855 81.6077 33.79 81.4477 33.79C81.1577 33.79 80.8727 33.945 80.5927 34.255C80.3227 34.565 80.1277 34.95 80.0077 35.41C79.9977 35.43 79.9627 35.44 79.9027 35.44C79.8527 35.44 79.8277 35.43 79.8277 35.41L79.7977 34.435C79.7777 34.035 79.7677 33.75 79.7677 33.58C79.7677 33.52 79.7727 33.485 79.7827 33.475C79.7927 33.455 79.8277 33.445 79.8877 33.445C80.0977 33.445 80.2827 33.45 80.4427 33.46L82.5127 33.475L84.6277 33.46C84.7977 33.45 84.9927 33.445 85.2127 33.445C85.2827 33.445 85.3227 33.455 85.3327 33.475C85.3427 33.485 85.3477 33.52 85.3477 33.58C85.2977 34.58 85.2727 35.19 85.2727 35.41C85.2727 35.43 85.2427 35.44 85.1827 35.44C85.1327 35.44 85.1027 35.43 85.0927 35.41C84.9727 34.95 84.7727 34.565 84.4927 34.255C84.2227 33.945 83.9427 33.79 83.6527 33.79C83.4927 33.79 83.3827 33.855 83.3227 33.985C83.2727 34.115 83.2477 34.355 83.2477 34.705V38.035C83.2477 38.335 83.2677 38.56 83.3077 38.71C83.3477 38.85 83.4227 38.945 83.5327 38.995C83.6527 39.045 83.8277 39.07 84.0577 39.07C84.0877 39.07 84.1027 39.1 84.1027 39.16C84.1027 39.22 84.0877 39.25 84.0577 39.25C83.7777 39.25 83.5627 39.245 83.4127 39.235L82.5727 39.22L81.7027 39.235C81.5427 39.245 81.3177 39.25 81.0277 39.25Z" fill="white"/>
<path d="M89.6355 35.815C91.1755 35.815 91.9455 36.335 91.9455 37.375C91.9455 37.945 91.7255 38.405 91.2855 38.755C90.8555 39.105 90.2905 39.28 89.5905 39.28L88.7805 39.25C88.3005 39.23 87.9555 39.22 87.7455 39.22L86.8755 39.235C86.7155 39.245 86.4905 39.25 86.2005 39.25C86.1705 39.25 86.1555 39.22 86.1555 39.16C86.1555 39.1 86.1705 39.07 86.2005 39.07C86.4405 39.07 86.6155 39.045 86.7255 38.995C86.8455 38.945 86.9255 38.85 86.9655 38.71C87.0055 38.56 87.0255 38.335 87.0255 38.035V34.675C87.0255 34.375 87.0055 34.155 86.9655 34.015C86.9255 33.865 86.8455 33.765 86.7255 33.715C86.6155 33.665 86.4455 33.64 86.2155 33.64C86.1855 33.64 86.1705 33.61 86.1705 33.55C86.1705 33.49 86.1855 33.46 86.2155 33.46C86.4955 33.46 86.7105 33.465 86.8605 33.475L87.7455 33.49L88.6755 33.475C88.8555 33.465 89.1005 33.46 89.4105 33.46C89.4305 33.46 89.4405 33.49 89.4405 33.55C89.4405 33.61 89.4305 33.64 89.4105 33.64C89.1205 33.64 88.9055 33.67 88.7655 33.73C88.6355 33.79 88.5455 33.895 88.4955 34.045C88.4455 34.185 88.4205 34.405 88.4205 34.705V35.95C88.7905 35.86 89.1955 35.815 89.6355 35.815ZM89.2755 39.055C89.6755 39.055 89.9705 38.95 90.1605 38.74C90.3505 38.52 90.4455 38.175 90.4455 37.705C90.4455 36.665 89.9955 36.145 89.0955 36.145C88.8855 36.145 88.6605 36.175 88.4205 36.235V38.035C88.4205 38.395 88.4805 38.655 88.6005 38.815C88.7205 38.975 88.9455 39.055 89.2755 39.055Z" fill="white"/>
<path d="M99.3097 39.445C98.6897 39.445 98.1447 39.305 97.6747 39.025C97.2147 38.735 96.8597 38.35 96.6097 37.87C96.3597 37.38 96.2347 36.85 96.2347 36.28C96.2347 35.63 96.3997 35.08 96.7297 34.63C97.0597 34.17 97.4797 33.83 97.9897 33.61C98.4997 33.38 99.0247 33.265 99.5647 33.265C100.185 33.265 100.725 33.41 101.185 33.7C101.645 33.99 101.995 34.375 102.235 34.855C102.485 35.325 102.61 35.83 102.61 36.37C102.61 36.97 102.46 37.505 102.16 37.975C101.86 38.435 101.455 38.795 100.945 39.055C100.445 39.315 99.8997 39.445 99.3097 39.445ZM99.7597 39.13C100.15 39.13 100.445 38.94 100.645 38.56C100.855 38.17 100.96 37.615 100.96 36.895C100.96 36.195 100.87 35.595 100.69 35.095C100.51 34.595 100.275 34.22 99.9847 33.97C99.6947 33.71 99.3847 33.58 99.0547 33.58C98.2547 33.58 97.8547 34.295 97.8547 35.725C97.8547 36.395 97.9397 36.99 98.1097 37.51C98.2797 38.02 98.5097 38.42 98.7997 38.71C99.0897 38.99 99.4097 39.13 99.7597 39.13Z" fill="white"/>
<path d="M104.744 39.25C104.714 39.25 104.699 39.22 104.699 39.16C104.699 39.1 104.714 39.07 104.744 39.07C104.984 39.07 105.159 39.045 105.269 38.995C105.389 38.945 105.469 38.85 105.509 38.71C105.549 38.56 105.569 38.335 105.569 38.035V34.705C105.569 34.355 105.539 34.115 105.479 33.985C105.429 33.855 105.324 33.79 105.164 33.79C104.874 33.79 104.589 33.945 104.309 34.255C104.039 34.565 103.844 34.95 103.724 35.41C103.714 35.43 103.679 35.44 103.619 35.44C103.569 35.44 103.544 35.43 103.544 35.41L103.514 34.435C103.494 34.035 103.484 33.75 103.484 33.58C103.484 33.52 103.489 33.485 103.499 33.475C103.509 33.455 103.544 33.445 103.604 33.445C103.814 33.445 103.999 33.45 104.159 33.46L106.229 33.475L108.344 33.46C108.514 33.45 108.709 33.445 108.929 33.445C108.999 33.445 109.039 33.455 109.049 33.475C109.059 33.485 109.064 33.52 109.064 33.58C109.014 34.58 108.989 35.19 108.989 35.41C108.989 35.43 108.959 35.44 108.899 35.44C108.849 35.44 108.819 35.43 108.809 35.41C108.689 34.95 108.489 34.565 108.209 34.255C107.939 33.945 107.659 33.79 107.369 33.79C107.209 33.79 107.099 33.855 107.039 33.985C106.989 34.115 106.964 34.355 106.964 34.705V38.035C106.964 38.335 106.984 38.56 107.024 38.71C107.064 38.85 107.139 38.945 107.249 38.995C107.369 39.045 107.544 39.07 107.774 39.07C107.804 39.07 107.819 39.1 107.819 39.16C107.819 39.22 107.804 39.25 107.774 39.25C107.494 39.25 107.279 39.245 107.129 39.235L106.289 39.22L105.419 39.235C105.259 39.245 105.034 39.25 104.744 39.25Z" fill="white"/>
<path d="M115.256 38.26C115.276 38.26 115.296 38.28 115.316 38.32C115.346 38.36 115.351 38.39 115.331 38.41C114.961 38.77 114.586 39.03 114.206 39.19C113.826 39.35 113.411 39.43 112.961 39.43C112.331 39.43 111.786 39.3 111.326 39.04C110.866 38.77 110.516 38.415 110.276 37.975C110.036 37.525 109.916 37.04 109.916 36.52C109.916 35.94 110.061 35.405 110.351 34.915C110.641 34.425 111.041 34.04 111.551 33.76C112.071 33.47 112.656 33.325 113.306 33.325C113.926 33.325 114.406 33.465 114.746 33.745C115.086 34.025 115.256 34.46 115.256 35.05C115.256 35.36 115.201 35.515 115.091 35.515L111.446 35.53C111.436 35.6 111.431 35.715 111.431 35.875C111.431 36.755 111.631 37.445 112.031 37.945C112.441 38.445 113.026 38.695 113.786 38.695C114.056 38.695 114.286 38.665 114.476 38.605C114.666 38.545 114.916 38.435 115.226 38.275L115.256 38.26ZM112.736 33.625C112.406 33.625 112.131 33.77 111.911 34.06C111.691 34.34 111.546 34.73 111.476 35.23L113.651 35.2C113.641 34.69 113.566 34.3 113.426 34.03C113.286 33.76 113.056 33.625 112.736 33.625Z" fill="white"/>
<path d="M122.306 39.07C122.356 39.07 122.381 39.1 122.381 39.16C122.381 39.22 122.356 39.25 122.306 39.25C122.126 39.25 121.846 39.24 121.466 39.22C121.066 39.2 120.776 39.19 120.596 39.19C120.436 39.19 120.176 39.2 119.816 39.22C119.476 39.24 119.236 39.25 119.096 39.25C119.056 39.25 119.036 39.22 119.036 39.16C119.036 39.1 119.056 39.07 119.096 39.07C119.316 39.07 119.476 39.045 119.576 38.995C119.676 38.935 119.726 38.85 119.726 38.74C119.726 38.66 119.696 38.555 119.636 38.425C119.586 38.285 119.526 38.14 119.456 37.99L118.196 35.305L117.296 37.405C117.116 37.825 117.026 38.165 117.026 38.425C117.026 38.855 117.266 39.07 117.746 39.07C117.796 39.07 117.821 39.1 117.821 39.16C117.821 39.22 117.796 39.25 117.746 39.25C117.636 39.25 117.481 39.24 117.281 39.22C117.081 39.2 116.891 39.19 116.711 39.19C116.501 39.19 116.296 39.2 116.096 39.22C115.916 39.24 115.756 39.25 115.616 39.25C115.566 39.25 115.541 39.22 115.541 39.16C115.541 39.1 115.566 39.07 115.616 39.07C115.796 39.07 115.986 38.945 116.186 38.695C116.396 38.435 116.651 37.96 116.951 37.27L118.691 33.235C118.711 33.195 118.741 33.175 118.781 33.175C118.821 33.175 118.851 33.195 118.871 33.235L120.731 37.195C120.991 37.765 121.191 38.175 121.331 38.425C121.471 38.665 121.611 38.835 121.751 38.935C121.891 39.025 122.076 39.07 122.306 39.07Z" fill="white"/>
<path d="M127.766 38.26C127.786 38.26 127.806 38.28 127.826 38.32C127.856 38.36 127.861 38.39 127.841 38.41C127.471 38.77 127.096 39.03 126.716 39.19C126.336 39.35 125.921 39.43 125.471 39.43C124.841 39.43 124.296 39.3 123.836 39.04C123.376 38.77 123.026 38.415 122.786 37.975C122.546 37.525 122.426 37.04 122.426 36.52C122.426 35.94 122.571 35.405 122.861 34.915C123.151 34.425 123.551 34.04 124.061 33.76C124.581 33.47 125.166 33.325 125.816 33.325C126.436 33.325 126.916 33.465 127.256 33.745C127.596 34.025 127.766 34.46 127.766 35.05C127.766 35.36 127.711 35.515 127.601 35.515L123.956 35.53C123.946 35.6 123.941 35.715 123.941 35.875C123.941 36.755 124.141 37.445 124.541 37.945C124.951 38.445 125.536 38.695 126.296 38.695C126.566 38.695 126.796 38.665 126.986 38.605C127.176 38.545 127.426 38.435 127.736 38.275L127.766 38.26ZM125.246 33.625C124.916 33.625 124.641 33.77 124.421 34.06C124.201 34.34 124.056 34.73 123.986 35.23L126.161 35.2C126.151 34.69 126.076 34.3 125.936 34.03C125.796 33.76 125.566 33.625 125.246 33.625Z" fill="white"/>
<path d="M132.146 32.215C131.756 32.215 131.386 32.15 131.036 32.02C130.696 31.89 130.421 31.72 130.211 31.51C130.011 31.29 129.911 31.055 129.911 30.805C129.911 30.625 129.966 30.485 130.076 30.385C130.186 30.275 130.346 30.22 130.556 30.22C130.746 30.22 130.886 30.265 130.976 30.355C131.076 30.435 131.146 30.535 131.186 30.655C131.226 30.765 131.266 30.93 131.306 31.15C131.346 31.41 131.416 31.615 131.516 31.765C131.626 31.905 131.831 31.975 132.131 31.975C132.431 31.975 132.646 31.9 132.776 31.75C132.906 31.59 132.991 31.37 133.031 31.09C133.091 30.79 133.161 30.57 133.241 30.43C133.331 30.29 133.496 30.22 133.736 30.22C133.936 30.22 134.091 30.275 134.201 30.385C134.311 30.485 134.366 30.625 134.366 30.805C134.366 31.055 134.261 31.29 134.051 31.51C133.841 31.73 133.566 31.905 133.226 32.035C132.886 32.155 132.526 32.215 132.146 32.215ZM135.626 39.07C135.646 39.07 135.656 39.1 135.656 39.16C135.656 39.22 135.646 39.25 135.626 39.25C135.336 39.25 135.111 39.245 134.951 39.235L134.126 39.22L133.241 39.235C133.081 39.245 132.861 39.25 132.581 39.25C132.561 39.25 132.551 39.22 132.551 39.16C132.551 39.1 132.561 39.07 132.581 39.07C132.821 39.07 132.996 39.045 133.106 38.995C133.226 38.945 133.306 38.85 133.346 38.71C133.386 38.56 133.406 38.335 133.406 38.035V35.035L129.761 39.31C129.731 39.35 129.666 39.37 129.566 39.37C129.516 39.37 129.466 39.36 129.416 39.34C129.366 39.33 129.341 39.32 129.341 39.31V34.675C129.341 34.375 129.321 34.155 129.281 34.015C129.241 33.865 129.166 33.765 129.056 33.715C128.946 33.665 128.771 33.64 128.531 33.64C128.511 33.64 128.501 33.61 128.501 33.55C128.501 33.49 128.511 33.46 128.531 33.46C128.761 33.46 128.936 33.465 129.056 33.475L130.016 33.49L131.231 33.475C131.321 33.465 131.431 33.46 131.561 33.46C131.591 33.46 131.606 33.49 131.606 33.55C131.606 33.61 131.591 33.64 131.561 33.64C131.321 33.64 131.141 33.665 131.021 33.715C130.911 33.765 130.836 33.865 130.796 34.015C130.756 34.155 130.736 34.375 130.736 34.675V37.705L134.396 33.415C134.426 33.365 134.491 33.34 134.591 33.34C134.651 33.34 134.701 33.35 134.741 33.37C134.791 33.38 134.816 33.395 134.816 33.415V38.035C134.816 38.335 134.836 38.56 134.876 38.71C134.916 38.85 134.991 38.945 135.101 38.995C135.211 39.045 135.386 39.07 135.626 39.07Z" fill="white"/>
</svg>
